<svg width="20" height="20" viewBox="0 0 20 20" fill="none" xmlns="http://www.w3.org/2000/svg">
<path d="M19.1224 0.877704C17.9521 -0.292568 16.0547 -0.292568 14.8845 0.877704L4.58514 11.1769C4.21048 11.5516 4 12.0597 4 12.5896V14.0022C4 15.1056 4.89444 16 5.99778 16H7.41042C7.94027 16 8.44841 15.7895 8.82307 15.4149L19.1224 5.11563C20.2927 3.94536 20.2927 2.04798 19.1224 0.877704ZM17.7097 2.29035C18.0998 2.68044 18.0998 3.3129 17.7097 3.70299L16.5716 4.84093L15.1589 3.42825L16.2971 2.29035C16.6872 1.90026 17.3197 1.90026 17.7097 2.29035ZM6.57883 12.0085L13.7463 4.84089L15.159 6.25357L7.99148 13.4212L6.57883 12.0085Z" fill="#1F1F1F"/>
<path d="M1 18C0.447715 18 0 18.4477 0 19C0 19.5523 0.447715 20 1 20H15C15.5523 20 16 19.5523 16 19C16 18.4477 15.5523 18 15 18H1Z" fill="#1F1F1F"/>
</svg>
