<svg width="20" height="22" viewBox="0 0 20 22" fill="none" xmlns="http://www.w3.org/2000/svg">
<path d="M7 0C6.44772 0 6 0.447715 6 1C6 1.55228 6.44772 2 7 2H13C13.5523 2 14 1.55228 14 1C14 0.447715 13.5523 0 13 0H7Z" fill="#1F1F1F"/>
<path d="M8 9C8.55228 9 9 9.44772 9 10V16C9 16.5523 8.55228 17 8 17C7.44771 17 7 16.5523 7 16L7 10C7 9.44771 7.44772 9 8 9Z" fill="#1F1F1F"/>
<path d="M13 10C13 9.44772 12.5523 9 12 9C11.4477 9 11 9.44771 11 10V16C11 16.5523 11.4477 17 12 17C12.5523 17 13 16.5523 13 16V10Z" fill="#1F1F1F"/>
<path d="M0 5C0 5.55228 0.447715 6 1 6H2V18C2 20.2091 3.79086 22 6 22H14C16.2091 22 18 20.2091 18 18V6H19C19.5523 6 20 5.55228 20 5C20 4.44772 19.5523 4 19 4H1C0.447715 4 0 4.44772 0 5ZM4 18V6H16V18C16 19.1046 15.1046 20 14 20H6C4.89543 20 4 19.1046 4 18Z" fill="#1F1F1F"/>
</svg>
