<svg width="20" height="25" viewBox="0 0 20 25" fill="none" xmlns="http://www.w3.org/2000/svg">
<path d="M3.33807 19.1678C3.33807 15.4885 6.32072 12.5059 10 12.5059C13.6793 12.5059 16.6619 15.4885 16.6619 19.1678V21.9436C16.6619 22.2502 16.4134 22.4988 16.1068 22.4988C15.8002 22.4988 15.5516 22.2502 15.5516 21.9436V19.1678C15.5516 16.1017 13.066 13.6162 10 13.6162C6.93393 13.6162 4.4484 16.1017 4.4484 19.1678V21.9436C4.4484 22.2502 4.19984 22.4988 3.89323 22.4988C3.58663 22.4988 3.33807 22.2502 3.33807 21.9436V19.1678Z" fill="#5E5E5E"/>
<path d="M10 10.8255C12.2995 10.8255 14.1637 8.96128 14.1637 6.66175C14.1637 4.3622 12.2995 2.49805 10 2.49805C7.70046 2.49805 5.8363 4.3622 5.8363 6.66175C5.8363 8.96128 7.70046 10.8255 10 10.8255ZM10 9.71514C8.31367 9.71514 6.94663 8.34811 6.94663 6.66175C6.94663 4.97541 8.31367 3.60837 10 3.60837C11.6864 3.60837 13.0534 4.97541 13.0534 6.66175C13.0534 8.34811 11.6864 9.71514 10 9.71514Z" fill="#5E5E5E"/>
<path d="M1.67258 24.1488L18.3274 0.832031" stroke="#5E5E5E" stroke-width="1.66548" stroke-linecap="round"/>
</svg>
