<svg width="16" height="16" viewBox="0 0 16 16" fill="none" xmlns="http://www.w3.org/2000/svg">
<path d="M8.8938 9.95503L14.2194 15.2806C14.5122 15.5735 14.9871 15.5735 15.28 15.2806C15.5729 14.9877 15.5729 14.5128 15.28 14.2199L9.95454 8.89446C10.6111 8.01796 11 6.9294 11 5.75C11 2.85051 8.6495 0.5 5.75 0.5C2.85051 0.5 0.5 2.85051 0.5 5.75C0.5 8.6495 2.85051 11 5.75 11C6.9291 11 8.01742 10.6113 8.8938 9.95503ZM9.5 5.75C9.5 7.82107 7.82107 9.5 5.75 9.5C3.67893 9.5 2 7.82107 2 5.75C2 3.67893 3.67893 2 5.75 2C7.82107 2 9.5 3.67893 9.5 5.75Z" fill="#666666"/>
</svg>
